<svg width="207" height="206" viewBox="0 0 207 206" fill="none" xmlns="http://www.w3.org/2000/svg">
<path d="M67.0752 130.202L103.6 153.187C100.271 156.779 95.8335 159.167 90.984 159.96C85.8483 160.8 80.5812 159.796 76.1138 157.128C71.5494 154.346 68.1507 150.001 66.5496 144.901C65.0354 140.077 65.2266 134.889 67.0752 130.202Z" fill="#C4DDF3" stroke="#98B9E1" stroke-width="1.5"/>
<path d="M9.34146 59.6015C7.77817 49.8571 12.7612 38.3771 22.2129 30.0913C31.6617 21.8079 43.695 18.3702 53.1485 21.1926C53.8183 21.3924 54.3831 21.8469 54.7215 22.4586C55.0599 23.0703 55.1449 23.7903 54.9583 24.464C54.8644 24.794 54.7057 25.1019 54.4914 25.3699C54.2772 25.6378 54.0116 25.8604 53.7104 26.0246C53.4091 26.1888 53.0782 26.2912 52.7368 26.3261C52.3955 26.3609 52.0507 26.3273 51.7225 26.2273C44.1299 23.961 33.8949 26.8853 25.7002 34.0692C17.5026 41.2557 13.2639 51.02 14.517 58.8438C14.5732 59.1823 14.5613 59.5286 14.4821 59.8624C14.403 60.1962 14.258 60.5109 14.0559 60.7881C13.8537 61.0653 13.5983 61.2994 13.3046 61.4767C13.0109 61.6541 12.6848 61.7711 12.3453 61.821C11.6538 61.9172 10.9522 61.7388 10.3907 61.3239C9.82922 60.909 9.45257 60.2907 9.34146 59.6015ZM22.8694 59.447C22.3366 52.996 25.6134 45.8656 31.5099 40.6963C37.7372 35.2371 45.7411 32.9767 52.2354 34.8374C52.9072 35.0303 53.4766 35.4789 53.8213 36.0869C54.166 36.6949 54.2585 37.4139 54.079 38.0893C53.9892 38.4207 53.8342 38.7309 53.623 39.0016C53.4118 39.2724 53.1488 39.4983 52.8492 39.6662C52.5497 39.834 52.2197 39.9404 51.8785 39.9792C51.5374 40.018 51.1919 39.9883 50.8623 39.8919C46.1961 38.5498 39.9762 40.3095 34.9972 44.6743C30.2685 48.8198 27.7067 54.3925 28.0972 59.0912C28.1274 59.4333 28.089 59.778 27.9842 60.1051C27.8794 60.4321 27.7104 60.7349 27.4869 60.9957C27.2635 61.2565 26.9902 61.47 26.6831 61.6238C26.376 61.7775 26.0413 61.8683 25.6986 61.8909C24.2558 61.9858 22.9913 60.8916 22.8694 59.447Z" fill="#98B9E1"/>
<path d="M194.078 85.8995C198.609 94.6668 197.465 107.129 191.077 117.954C184.692 128.776 174.336 135.804 164.474 136.078C163.775 136.098 163.097 135.842 162.584 135.367C162.071 134.892 161.766 134.235 161.732 133.536C161.718 133.194 161.773 132.851 161.892 132.53C162.012 132.208 162.195 131.914 162.43 131.664C162.665 131.414 162.947 131.213 163.26 131.073C163.574 130.933 163.912 130.858 164.255 130.85C172.175 130.629 180.983 124.652 186.521 115.266C192.061 105.877 193.035 95.2771 189.399 88.2371C189.24 87.9332 189.143 87.6006 189.114 87.2587C189.084 86.9169 189.124 86.5726 189.229 86.2461C189.335 85.9196 189.504 85.6174 189.727 85.3571C189.951 85.0969 190.224 84.8837 190.531 84.7302C191.158 84.4227 191.88 84.3728 192.543 84.5914C193.206 84.81 193.757 85.2795 194.078 85.8995ZM181.277 90.2753C183.799 96.2364 182.916 104.034 178.931 110.787C174.722 117.92 167.826 122.569 161.076 122.832C160.377 122.859 159.696 122.61 159.179 122.141C158.661 121.671 158.349 121.017 158.308 120.319C158.29 119.976 158.34 119.633 158.456 119.31C158.572 118.987 158.751 118.69 158.983 118.437C159.215 118.184 159.495 117.98 159.807 117.836C160.119 117.693 160.457 117.613 160.8 117.601C165.652 117.417 171.01 113.801 174.375 108.099C177.57 102.683 178.262 96.5887 176.422 92.2475C176.286 91.932 176.215 91.5926 176.212 91.2492C176.21 90.9058 176.276 90.5653 176.406 90.2477C176.537 89.9301 176.73 89.6419 176.973 89.3998C177.217 89.1578 177.507 88.9669 177.825 88.8383C179.166 88.2971 180.709 88.9412 181.277 90.2753Z" fill="#98B9E1"/>
<path d="M125.221 154.627C123.776 149.62 123.011 144.44 122.947 139.229C123.55 132.47 125.496 125.899 128.673 119.903L139.288 103.034C144.972 94.0526 147.18 83.3048 145.498 72.8101C143.816 62.3153 138.359 52.796 130.153 46.0407L132.925 41.6357C133.686 40.4267 133.936 38.9649 133.619 37.572C133.302 36.1791 132.445 34.9692 131.236 34.2083C130.026 33.4475 128.565 33.1981 127.172 33.515C125.779 33.832 124.569 34.6892 123.808 35.8983L120.993 40.3715C111.381 36.0288 100.52 35.3167 90.4231 38.3672C80.326 41.4177 71.6765 48.024 66.0766 56.9627L55.4613 73.8314C51.4295 79.2895 46.3481 83.8874 40.5154 87.3552C35.8364 89.5703 30.8824 91.1501 25.7849 92.0527C25.2193 92.1434 24.6795 92.3536 24.2014 92.6692C23.7233 92.9848 23.318 93.3986 23.0122 93.8831L20.0898 98.5271C19.5199 99.4328 19.3331 100.528 19.5705 101.571C19.8079 102.614 20.45 103.521 21.3557 104.091L116.285 163.829C117.19 164.399 118.285 164.586 119.329 164.348C120.372 164.111 121.278 163.469 121.848 162.563L124.771 157.919C125.075 157.434 125.273 156.889 125.351 156.322C125.428 155.754 125.384 155.177 125.221 154.627ZM29.3413 99.582C34.4497 98.5122 39.4114 96.8332 44.1197 94.5811C51.2999 90.4783 57.5097 84.8738 62.3248 78.1506L72.9402 61.2819C75.3231 57.1947 78.5042 53.6289 82.2939 50.7967C86.0837 47.9645 90.4046 45.924 94.9993 44.7965C99.5941 43.669 104.369 43.4776 109.039 44.2338C113.709 44.99 118.18 46.6783 122.184 49.1981C126.188 51.7179 129.644 55.0178 132.347 58.9011C135.049 62.7845 136.942 67.1719 137.914 71.8022C138.885 76.4325 138.915 81.2109 138.001 85.8529C137.088 90.495 135.249 94.9056 132.595 98.8224L121.98 115.691C118.002 122.941 115.636 130.964 115.043 139.213C115.05 144.432 115.683 149.632 116.929 154.7L29.3413 99.582Z" fill="#98B9E1"/>
<circle cx="152.424" cy="196.616" r="8.46602" fill="#F8FBFE" stroke="#D5E2F3"/>
<circle cx="93.966" cy="8.96602" r="8.46602" fill="#F8FBFE" stroke="#D5E2F3"/>
</svg>
