<svg width="544" height="156" viewBox="0 0 544 156" fill="none" xmlns="http://www.w3.org/2000/svg">
<mask id="mask0_520_988" style="mask-type:alpha" maskUnits="userSpaceOnUse" x="0" y="0" width="544" height="156">
<rect x="0.5" y="0.5" width="543" height="155" rx="13.5" fill="#0D0D0D" stroke="#E0E0E0"/>
</mask>
<g mask="url(#mask0_520_988)">
<rect x="0.5" y="0.5" width="543" height="155" rx="13.5" fill="#0D0D0D" stroke="#E0E0E0"/>
<ellipse cx="478" cy="2.5" rx="151" ry="150.5" fill="url(#paint0_linear_520_988)"/>
<path fill-rule="evenodd" clip-rule="evenodd" d="M543.909 2.97595C541.873 2.10797 539.705 1.40319 537.394 0.878353C519.195 -3.25448 504.895 7.762 491.376 22.0847C487.989 25.6727 484.641 29.4792 481.287 33.321C480.898 33.7667 480.509 34.2128 480.12 34.6592L480.088 34.6962L480.076 34.709C477.122 38.0959 474.159 41.4937 471.147 44.7868C464.3 52.2753 457.232 59.192 449.539 64.1498C439.87 70.3811 429.07 74.6263 418.329 78.8485L418.329 78.8487C415.074 80.1282 411.824 81.4056 408.613 82.7355C394.839 88.4398 381.816 95.0994 372.438 107.044C361.182 121.381 351.371 138.178 346.001 155.783H347.047C352.385 138.449 362.068 121.872 373.225 107.661C382.435 95.9307 395.251 89.3515 408.995 83.6594C412.168 82.3455 415.392 81.0782 418.632 79.805L418.632 79.8048L418.633 79.8045L418.633 79.8045C429.393 75.5757 440.32 71.2809 450.081 64.9904C457.884 59.9611 465.022 52.9671 471.885 45.4616C474.905 42.16 477.876 38.7535 480.828 35.3683C481.233 34.9045 481.637 34.4412 482.041 33.9786C485.395 30.1367 488.731 26.3435 492.103 22.7711C505.619 8.45214 519.559 -2.14634 537.173 1.85353C539.571 2.39806 541.811 3.14204 543.909 4.06683V2.97595ZM543.909 7.59725C543.361 7.44728 542.805 7.30803 542.24 7.17973C524.392 3.12662 510.369 13.9312 497.114 27.9731C493.794 31.491 490.512 35.2228 487.224 38.9894C486.827 39.4434 486.431 39.8979 486.034 40.3526C483.139 43.6723 480.234 47.0026 477.283 50.2301C470.569 57.5717 463.641 64.352 456.1 69.2119C446.622 75.3204 436.035 79.482 425.504 83.6213L425.504 83.6214L425.503 83.6218C422.312 84.8762 419.126 86.1285 415.978 87.4323C402.474 93.0249 389.704 99.5547 380.509 111.267C370.171 124.433 361.077 139.715 355.64 155.783H356.696C362.095 139.981 371.062 124.918 381.295 111.884C390.323 100.386 402.886 93.9366 416.36 88.3562C419.471 87.0681 422.632 85.8256 425.808 84.5772C436.357 80.4313 447.071 76.2202 456.641 70.0525C464.293 65.1211 471.292 58.2635 478.021 50.905C480.981 47.6673 483.895 44.3269 486.79 41.0073L487.31 40.4109L487.977 39.647C491.265 35.8804 494.536 32.1617 497.841 28.6595C511.092 14.6213 524.756 4.23477 542.019 8.1549C542.66 8.30057 543.29 8.4608 543.909 8.63523V7.59725ZM543.909 15.8531C543.436 15.724 542.957 15.6032 542.472 15.4906C525.232 11.4969 511.75 21.866 499.032 35.3545C495.846 38.7339 492.697 42.3198 489.544 45.9388C489.164 46.3744 488.785 46.8104 488.405 47.2466C485.627 50.4371 482.841 53.6374 480.009 56.7384C473.569 63.7907 466.921 70.299 459.674 74.9519C450.564 80.8011 440.377 84.7671 430.242 88.7129C427.17 89.9089 424.102 91.103 421.071 92.3472C408.075 97.6819 395.786 103.926 386.967 115.189C377.539 127.232 369.204 141.129 363.963 155.783H365.026C370.223 141.391 378.434 127.712 387.755 115.806C396.404 104.758 408.484 98.5949 421.451 93.2723C424.443 92.0443 427.484 90.8606 430.539 89.6711L430.542 89.6699C440.696 85.7176 451.012 81.7021 460.214 75.7934C467.573 71.0686 474.292 64.4822 480.748 57.4128C483.588 54.3023 486.383 51.0924 489.16 47.9028L489.172 47.889L489.238 47.8124C489.592 47.4064 489.945 47.0008 490.298 46.5958C493.451 42.9767 496.588 39.4041 499.76 36.0406C512.473 22.5576 525.593 12.607 542.246 16.4648C542.809 16.5954 543.363 16.7375 543.909 16.8909V15.8531Z" fill="#BDBDBD"/>
</g>
<defs>
<linearGradient id="paint0_linear_520_988" x1="296.087" y1="-67.0988" x2="444.802" y2="81.5232" gradientUnits="userSpaceOnUse">
<stop stop-color="white" stop-opacity="0.2"/>
<stop offset="1" stop-color="white" stop-opacity="0"/>
</linearGradient>
</defs>
</svg>
