<svg width="20" height="20" viewBox="0 0 20 20" fill="none" xmlns="http://www.w3.org/2000/svg">
<path d="M17.4999 15.625V16.5H2.49992V15.625L4.16658 13.875V8.625C4.16658 5.9125 5.85825 3.52375 8.33325 2.75375C8.33325 2.66625 8.33325 2.5875 8.33325 2.5C8.33325 2.03587 8.50885 1.59075 8.82141 1.26256C9.13397 0.934374 9.55789 0.75 9.99992 0.75C10.4419 0.75 10.8659 0.934374 11.1784 1.26256C11.491 1.59075 11.6666 2.03587 11.6666 2.5C11.6666 2.5875 11.6666 2.66625 11.6666 2.75375C14.1416 3.52375 15.8333 5.9125 15.8333 8.625V13.875L17.4999 15.625ZM11.6666 17.375C11.6666 17.8391 11.491 18.2842 11.1784 18.6124C10.8659 18.9406 10.4419 19.125 9.99992 19.125C9.55789 19.125 9.13397 18.9406 8.82141 18.6124C8.50885 18.2842 8.33325 17.8391 8.33325 17.375H11.6666ZM16.4583 1.79125L15.2749 3.03375C16.6999 4.5125 17.4999 6.525 17.4999 8.625H19.1666C19.1666 6.06125 18.1999 3.59375 16.4583 1.79125ZM0.833252 8.625H2.49992C2.49992 6.525 3.29992 4.5125 4.72492 3.03375L3.54158 1.79125C1.79992 3.59375 0.833252 6.06125 0.833252 8.625Z" fill="#00008B"/>
</svg>
