<svg width="36" height="36" viewBox="0 0 36 36" fill="none" xmlns="http://www.w3.org/2000/svg">
<path d="M18.1426 12.5585C17.2539 12.5585 15.8781 11.548 14.4293 11.5845C12.5179 11.6089 10.7648 12.6924 9.7786 14.4091C7.79412 17.8545 9.26726 22.9436 11.203 25.7437C12.1527 27.1073 13.2727 28.6413 14.7581 28.5926C16.1825 28.5317 16.7182 27.6673 18.447 27.6673C20.1636 27.6673 20.6506 28.5926 22.1603 28.5561C23.6943 28.5317 24.6683 27.1682 25.6057 25.7924C26.6893 24.2097 27.1397 22.6757 27.1641 22.5905C27.1276 22.5783 24.1813 21.4461 24.1448 18.0371C24.1204 15.1883 26.4701 13.8247 26.5797 13.7638C25.2405 11.8037 23.183 11.5845 22.4647 11.5358C20.5897 11.3898 19.0192 12.5585 18.1426 12.5585ZM21.3081 9.68529C22.0994 8.73566 22.6229 7.40862 22.4768 6.09375C21.3446 6.14245 19.981 6.84858 19.1653 7.79821C18.4348 8.63826 17.8017 9.98966 17.9722 11.2802C19.2262 11.3776 20.5167 10.6349 21.3081 9.68529Z" fill="white"/>
</svg>
