<svg width="30" height="30" viewBox="0 0 30 30" fill="none" xmlns="http://www.w3.org/2000/svg">
<path d="M23.9476 21.1218C23.8219 21.1218 23.7035 21.0512 23.6454 20.9351C23.626 20.8975 22.0773 18.026 15.6147 17.9283V20.784C15.6147 20.9127 15.5415 21.0301 15.4262 21.0869C15.311 21.1436 15.1738 21.1304 15.0712 21.0523L7.98997 15.6255C7.90651 15.5615 7.85718 15.4625 7.85718 15.3576C7.85718 15.2522 7.90651 15.1532 7.98997 15.0891L15.0715 9.66251C15.1742 9.58416 15.3113 9.57092 15.4265 9.6274C15.5418 9.68377 15.615 9.80173 15.615 9.93007V12.9395C15.786 12.9287 16.0086 12.9192 16.2714 12.9192C18.6812 12.9192 24.2857 13.6857 24.2857 20.7833C24.2857 20.9403 24.1778 21.0769 24.0248 21.1125C23.999 21.1192 23.9736 21.1218 23.9476 21.1218Z" fill="white"/>
<path d="M13.5715 8.92871L6.63502 14.604C6.15438 14.9973 6.14464 15.7289 6.61463 16.1348L13.5715 22.143" stroke="white"/>
</svg>
