<svg width="24" height="24" viewBox="0 0 24 24" fill="none" xmlns="http://www.w3.org/2000/svg">
<path d="M21.06 12.2802C21.0529 10.7788 20.4526 9.34097 19.39 8.2802L14 2.8102C13.4694 2.28015 12.75 1.98242 12 1.98242C11.25 1.98242 10.5306 2.28015 10 2.8102L4.61001 8.2302C3.54739 9.29097 2.94711 10.7288 2.94001 12.2302C2.93071 12.9863 3.07195 13.7367 3.3555 14.4376C3.63904 15.1386 4.05922 15.7762 4.59157 16.3132C5.12391 16.8502 5.75778 17.2759 6.45626 17.5655C7.15474 17.8551 7.90386 18.0029 8.66001 18.0002C8.40871 18.8629 7.99084 19.6681 7.43001 20.3702C7.309 20.5191 7.23341 20.6997 7.21224 20.8904C7.19107 21.0812 7.22522 21.2739 7.31061 21.4458C7.396 21.6176 7.52904 21.7613 7.69383 21.8596C7.85863 21.9579 8.04823 22.0067 8.24001 22.0002H15.76C15.9492 22.0008 16.1348 21.9478 16.2951 21.8472C16.4553 21.7466 16.5838 21.6026 16.6655 21.4319C16.7471 21.2612 16.7787 21.0708 16.7565 20.8829C16.7343 20.6949 16.6592 20.5172 16.54 20.3702C15.9783 19.6687 15.5603 18.8633 15.31 18.0002C16.0639 18.0082 16.812 17.8662 17.5105 17.5825C18.2091 17.2989 18.8444 16.8793 19.3794 16.348C19.9144 15.8167 20.3385 15.1844 20.627 14.4878C20.9155 13.7912 21.0627 13.0442 21.06 12.2902V12.2802ZM18 14.9102C17.5271 15.376 16.9398 15.709 16.2973 15.8757C15.6548 16.0425 14.9798 16.0371 14.34 15.8602C14.2834 15.8554 14.2266 15.8554 14.17 15.8602H13.97C13.8952 15.8742 13.8216 15.8943 13.75 15.9202H13.6C13.5523 15.9514 13.5086 15.9883 13.47 16.0302C13.4068 16.0682 13.3495 16.1154 13.3 16.1702C13.2839 16.2089 13.2638 16.2457 13.24 16.2802C13.1961 16.3548 13.156 16.4315 13.12 16.5102C13.1151 16.5701 13.1151 16.6303 13.12 16.6902C13.12 16.7502 13.12 16.8102 13.12 16.8702C13.1984 17.9551 13.4764 19.0162 13.94 20.0002H10.06C10.5337 19.0622 10.832 18.0455 10.94 17.0002C10.94 16.9402 10.94 16.8802 10.94 16.8102C10.9449 16.7503 10.9449 16.6901 10.94 16.6302C10.9066 16.5452 10.863 16.4646 10.81 16.3902C10.7937 16.3548 10.7736 16.3212 10.75 16.2902C10.7065 16.2334 10.6521 16.1858 10.59 16.1502C10.5492 16.1107 10.5058 16.0739 10.46 16.0402H10.32C10.2469 16.0065 10.1695 15.9829 10.09 15.9702H9.9C9.84011 15.9653 9.7799 15.9653 9.72001 15.9702C9.06177 16.1417 8.36964 16.1338 7.71548 15.9474C7.06132 15.761 6.469 15.4029 6.00001 14.9102C5.30509 14.2109 4.9135 13.2661 4.91001 12.2802C4.90847 11.7915 5.00404 11.3073 5.19116 10.8558C5.37827 10.4044 5.65321 9.99455 6.00001 9.6502L11.4 4.2302C11.5512 4.08298 11.754 4.00061 11.965 4.00061C12.1761 4.00061 12.3788 4.08298 12.53 4.2302L18 9.6502C18.3468 9.99455 18.6217 10.4044 18.8089 10.8558C18.996 11.3073 19.0915 11.7915 19.09 12.2802C19.0833 13.2654 18.6922 14.2091 18 14.9102Z" fill="black"/>
</svg>
