<svg width="24" height="24" viewBox="0 0 24 24" fill="none" xmlns="http://www.w3.org/2000/svg">
<path d="M18 6.00019H14.41L16.71 3.71019C16.8032 3.61695 16.8772 3.50626 16.9277 3.38443C16.9781 3.26261 17.0041 3.13204 17.0041 3.00019C17.0041 2.86833 16.9781 2.73776 16.9277 2.61594C16.8772 2.49411 16.8032 2.38342 16.71 2.29019C16.6168 2.19695 16.5061 2.12299 16.3842 2.07253C16.2624 2.02207 16.1319 1.99609 16 1.99609C15.7337 1.99609 15.4783 2.10188 15.29 2.29019L12 5.54019L10.83 3.54019C10.7643 3.42594 10.6768 3.32574 10.5724 3.24531C10.468 3.16489 10.3488 3.10581 10.2216 3.07145C10.0944 3.03709 9.96168 3.02813 9.83099 3.04507C9.70031 3.06201 9.57425 3.10452 9.46 3.17019C9.34575 3.23585 9.24555 3.32337 9.16513 3.42775C9.0847 3.53214 9.02562 3.65134 8.99126 3.77856C8.95691 3.90577 8.94794 4.03851 8.96488 4.16919C8.98182 4.29987 9.02434 4.42594 9.09 4.54019L10 6.00019H6C5.20435 6.00019 4.44129 6.31626 3.87868 6.87887C3.31607 7.44147 3 8.20454 3 9.00019V17.0002C3 17.7958 3.31607 18.5589 3.87868 19.1215C4.44129 19.6841 5.20435 20.0002 6 20.0002V21.0002C6 21.2654 6.10536 21.5198 6.29289 21.7073C6.48043 21.8948 6.73478 22.0002 7 22.0002C7.26522 22.0002 7.51957 21.8948 7.70711 21.7073C7.89464 21.5198 8 21.2654 8 21.0002V20.0002H16V21.0002C16 21.2654 16.1054 21.5198 16.2929 21.7073C16.4804 21.8948 16.7348 22.0002 17 22.0002C17.2652 22.0002 17.5196 21.8948 17.7071 21.7073C17.8946 21.5198 18 21.2654 18 21.0002V20.0002C18.7956 20.0002 19.5587 19.6841 20.1213 19.1215C20.6839 18.5589 21 17.7958 21 17.0002V9.00019C21 8.20454 20.6839 7.44147 20.1213 6.87887C19.5587 6.31626 18.7956 6.00019 18 6.00019ZM19 17.0002C19 17.2654 18.8946 17.5198 18.7071 17.7073C18.5196 17.8948 18.2652 18.0002 18 18.0002H6C5.73478 18.0002 5.48043 17.8948 5.29289 17.7073C5.10536 17.5198 5 17.2654 5 17.0002V9.00019C5 8.73497 5.10536 8.48062 5.29289 8.29308C5.48043 8.10554 5.73478 8.00019 6 8.00019H18C18.2652 8.00019 18.5196 8.10554 18.7071 8.29308C18.8946 8.48062 19 8.73497 19 9.00019V17.0002Z" fill="black"/>
</svg>
