<svg width="24" height="24" viewBox="0 0 24 24" fill="none" xmlns="http://www.w3.org/2000/svg">
<path d="M17.0899 2.82031C16.1702 2.0639 15.0933 1.52234 13.9376 1.23516C12.7819 0.947971 11.5767 0.922401 10.4099 1.16031C8.85632 1.47413 7.43093 2.24239 6.31462 3.36759C5.19832 4.4928 4.44141 5.92425 4.13994 7.48031C3.91979 8.64703 3.95979 9.84796 4.2571 10.9974C4.55441 12.1469 5.1017 13.2166 5.85994 14.1303C6.56363 14.9244 6.96698 15.9398 6.99994 17.0003V20.0003C6.99994 20.796 7.31601 21.559 7.87862 22.1216C8.44123 22.6842 9.20429 23.0003 9.99994 23.0003H13.9999C14.7956 23.0003 15.5587 22.6842 16.1213 22.1216C16.6839 21.559 16.9999 20.796 16.9999 20.0003V17.1903C17.0335 16.0195 17.4637 14.8947 18.2199 14.0003C19.5451 12.3611 20.1697 10.2651 19.9581 8.16794C19.7465 6.07074 18.7158 4.1418 17.0899 2.80031V2.82031ZM14.9999 20.0003C14.9999 20.2655 14.8946 20.5199 14.707 20.7074C14.5195 20.895 14.2652 21.0003 13.9999 21.0003H9.99994C9.73473 21.0003 9.48037 20.895 9.29284 20.7074C9.1053 20.5199 8.99994 20.2655 8.99994 20.0003V19.0003H14.9999V20.0003ZM16.6699 12.7603C15.6644 13.9529 15.0778 15.4424 14.9999 17.0003H12.9999V14.0003C12.9999 13.7351 12.8946 13.4807 12.707 13.2932C12.5195 13.1057 12.2652 13.0003 11.9999 13.0003C11.7347 13.0003 11.4804 13.1057 11.2928 13.2932C11.1053 13.4807 10.9999 13.7351 10.9999 14.0003V17.0003H8.99994C8.97356 15.4684 8.40689 13.9951 7.39994 12.8403C6.73558 12.0443 6.28883 11.0897 6.10325 10.0697C5.91767 9.04959 5.99959 7.99883 6.34103 7.01984C6.68247 6.04086 7.27176 5.16706 8.05146 4.48364C8.83116 3.80022 9.77465 3.33051 10.7899 3.12031C11.6625 2.94066 12.5641 2.95756 13.4293 3.16978C14.2945 3.38201 15.1016 3.78424 15.792 4.34727C16.4824 4.91029 17.0387 5.61999 17.4206 6.42483C17.8025 7.22967 18.0004 8.10946 17.9999 9.00031C18.0073 10.3702 17.537 11.6998 16.6699 12.7603Z" fill="black"/>
</svg>
