<svg width="24" height="24" viewBox="0 0 24 24" fill="none" xmlns="http://www.w3.org/2000/svg">
<path d="M12 15C11.4067 15 10.8267 15.1759 10.3333 15.5056C9.83998 15.8352 9.45546 16.3037 9.2284 16.8519C9.00134 17.4001 8.94193 18.0033 9.05768 18.5852C9.17344 19.1672 9.45916 19.7017 9.87872 20.1213C10.2983 20.5408 10.8328 20.8266 11.4148 20.9423C11.9967 21.0581 12.5999 20.9987 13.1481 20.7716C13.6963 20.5445 14.1648 20.16 14.4944 19.6667C14.8241 19.1733 15 18.5933 15 18C15 17.2043 14.684 16.4412 14.1214 15.8786C13.5588 15.316 12.7957 15 12 15ZM12 19C11.8023 19 11.6089 18.9413 11.4445 18.8314C11.28 18.7216 11.1518 18.5654 11.0762 18.3826C11.0005 18.1999 10.9807 17.9989 11.0193 17.8049C11.0578 17.6109 11.1531 17.4327 11.2929 17.2929C11.4328 17.153 11.611 17.0578 11.8049 17.0192C11.9989 16.9806 12.2 17.0004 12.3827 17.0761C12.5654 17.1518 12.7216 17.2799 12.8315 17.4444C12.9414 17.6088 13 17.8022 13 18C13 18.2652 12.8947 18.5195 12.7071 18.7071C12.5196 18.8946 12.2653 19 12 19ZM12 11C10.1448 11.0064 8.36659 11.7428 7.05004 13.05C6.86379 13.2373 6.75925 13.4908 6.75925 13.755C6.75925 14.0191 6.86379 14.2726 7.05004 14.46C7.2374 14.6462 7.49085 14.7508 7.75504 14.7508C8.01923 14.7508 8.27268 14.6462 8.46004 14.46C8.9245 13.9943 9.47625 13.6249 10.0837 13.3728C10.6912 13.1208 11.3424 12.991 12 12.991C12.6577 12.991 13.3089 13.1208 13.9164 13.3728C14.5238 13.6249 15.0756 13.9943 15.54 14.46C15.7247 14.6484 15.9763 14.7562 16.24 14.76C16.4429 14.7716 16.6446 14.7212 16.8181 14.6154C16.9916 14.5096 17.1288 14.3535 17.2113 14.1678C17.2939 13.982 17.3179 13.7756 17.2801 13.5759C17.2424 13.3762 17.1447 13.1927 17 13.05C16.3421 12.3967 15.5618 11.8794 14.7039 11.5276C13.846 11.1759 12.9272 10.9966 12 11ZM12 6.99996C9.08403 7.00771 6.28862 8.16468 4.22004 10.22C4.1268 10.3132 4.05284 10.4239 4.00238 10.5457C3.95192 10.6675 3.92595 10.7981 3.92595 10.93C3.92595 11.1963 4.03173 11.4517 4.22004 11.64C4.40834 11.8283 4.66374 11.9341 4.93004 11.9341C5.19634 11.9341 5.45173 11.8283 5.64004 11.64C7.32754 9.95456 9.61503 9.00788 12 9.00788C14.385 9.00788 16.6725 9.95456 18.36 11.64C18.4535 11.7326 18.5643 11.806 18.6861 11.8557C18.808 11.9055 18.9384 11.9307 19.07 11.93C19.2016 11.9307 19.3321 11.9055 19.4539 11.8557C19.5758 11.806 19.6866 11.7326 19.78 11.64C19.8738 11.547 19.9482 11.4364 19.9989 11.3145C20.0497 11.1927 20.0758 11.062 20.0758 10.93C20.0758 10.798 20.0497 10.6672 19.9989 10.5454C19.9482 10.4235 19.8738 10.3129 19.78 10.22C17.7115 8.16468 14.9161 7.00771 12 6.99996ZM22.61 7.38996C21.217 5.99606 19.563 4.89031 17.7425 4.13589C15.922 3.38147 13.9707 2.99316 12 2.99316C10.0294 2.99316 8.07808 3.38147 6.25757 4.13589C4.43706 4.89031 2.78304 5.99606 1.39004 7.38996C1.20174 7.57827 1.09595 7.83366 1.09595 8.09996C1.09595 8.36626 1.20174 8.62166 1.39004 8.80996C1.57834 8.99827 1.83374 9.10405 2.10004 9.10405C2.36634 9.10405 2.62174 8.99827 2.81004 8.80996C5.24782 6.37345 8.55339 5.00474 12 5.00474C15.4467 5.00474 18.7523 6.37345 21.19 8.80996C21.283 8.90369 21.3936 8.97808 21.5155 9.02885C21.6373 9.07962 21.768 9.10576 21.9 9.10576C22.032 9.10576 22.1628 9.07962 22.2846 9.02885C22.4065 8.97808 22.5171 8.90369 22.61 8.80996C22.7038 8.717 22.7782 8.6064 22.8289 8.48454C22.8797 8.36268 22.9058 8.23197 22.9058 8.09996C22.9058 7.96795 22.8797 7.83724 22.8289 7.71539C22.7782 7.59353 22.7038 7.48292 22.61 7.38996Z" fill="black"/>
</svg>
