<svg width="40" height="40" viewBox="50 30 40 40" fill="none" xmlns="http://www.w3.org/2000/svg">
<g filter="url(#filter0_d_520_631)">
<rect x="50" y="30" width="40" height="40" rx="6" fill="url(#paint0_linear_520_631)"/>
</g>
<path d="M76.9379 45H75.9411V44C75.9411 43.2044 75.6261 42.4413 75.0653 41.8787C74.5045 41.3161 73.744 41 72.9509 41H62.9836C62.1906 41 61.43 41.3161 60.8692 41.8787C60.3084 42.4413 59.9934 43.2044 59.9934 44V44V56C59.9934 56.7956 60.3084 57.5587 60.8692 58.1213C61.43 58.6839 62.1906 59 62.9836 59H76.9379C77.7309 59 78.4915 58.6839 79.0522 58.1213C79.613 57.5587 79.928 56.7956 79.928 56V48C79.928 47.2044 79.613 46.4413 79.0522 45.8787C78.4915 45.3161 77.7309 45 76.9379 45ZM62.9836 43H72.9509C73.2153 43 73.4688 43.1054 73.6557 43.2929C73.8426 43.4804 73.9477 43.7348 73.9477 44V45H62.9836C62.7193 45 62.4657 44.8946 62.2788 44.7071C62.0919 44.5196 61.9869 44.2652 61.9869 44C61.9869 43.7348 62.0919 43.4804 62.2788 43.2929C62.4657 43.1054 62.7193 43 62.9836 43V43ZM77.9346 53H76.9379C76.6735 53 76.42 52.8946 76.2331 52.7071C76.0461 52.5196 75.9411 52.2652 75.9411 52C75.9411 51.7348 76.0461 51.4804 76.2331 51.2929C76.42 51.1054 76.6735 51 76.9379 51H77.9346V53ZM77.9346 49H76.9379C76.1448 49 75.3842 49.3161 74.8235 49.8787C74.2627 50.4413 73.9477 51.2044 73.9477 52C73.9477 52.7956 74.2627 53.5587 74.8235 54.1213C75.3842 54.6839 76.1448 55 76.9379 55H77.9346V56C77.9346 56.2652 77.8296 56.5196 77.6426 56.7071C77.4557 56.8946 77.2022 57 76.9379 57H62.9836C62.7193 57 62.4657 56.8946 62.2788 56.7071C62.0919 56.5196 61.9869 56.2652 61.9869 56V46.83C62.3071 46.943 62.6442 47.0005 62.9836 47H76.9379C77.2022 47 77.4557 47.1054 77.6426 47.2929C77.8296 47.4804 77.9346 47.7348 77.9346 48V49Z" fill="white"/>
<defs>
<filter id="filter0_d_520_631" x="0" y="0" width="140" height="140" filterUnits="userSpaceOnUse" color-interpolation-filters="sRGB">
<feFlood flood-opacity="0" result="BackgroundImageFix"/>
<feColorMatrix in="SourceAlpha" type="matrix" values="0 0 0 0 0 0 0 0 0 0 0 0 0 0 0 0 0 0 127 0" result="hardAlpha"/>
<feOffset dy="20"/>
<feGaussianBlur stdDeviation="25"/>
<feColorMatrix type="matrix" values="0 0 0 0 0.379167 0 0 0 0 0.379167 0 0 0 0 0.379167 0 0 0 0.25 0"/>
<feBlend mode="normal" in2="BackgroundImageFix" result="effect1_dropShadow_520_631"/>
<feBlend mode="normal" in="SourceGraphic" in2="effect1_dropShadow_520_631" result="shape"/>
</filter>
<linearGradient id="paint0_linear_520_631" x1="70" y1="30" x2="70" y2="70" gradientUnits="userSpaceOnUse">
<stop stop-color="#92E7BF"/>
<stop offset="1" stop-color="#39B67B"/>
</linearGradient>
</defs>
</svg>
