<svg width="27" height="30" viewBox="0 0 27 30" fill="none" xmlns="http://www.w3.org/2000/svg">
<path d="M0.547565 0.467437C0.167562 0.918081 -0.0242404 1.49498 0.0112565 2.08055V27.5677C-0.0242404 28.1533 0.167562 28.7302 0.547565 29.1808L0.629176 29.2615L15.0745 14.997V14.6628L0.629176 0.38678L0.547565 0.467437Z" fill="url(#paint0_linear_520_12230)"/>
<path d="M19.8546 19.7558L15.0745 14.9971V14.663L19.8546 9.89276L19.9595 9.95037L25.684 13.1651C27.3162 14.0753 27.3162 15.5732 25.684 16.495L19.9828 19.6982L19.8546 19.7558Z" fill="url(#paint1_linear_520_12230)"/>
<path d="M19.9948 19.6866L15.0748 14.8242L0.547852 29.1809C0.880551 29.4699 1.30497 29.635 1.74775 29.6477C2.19054 29.6603 2.62388 29.5196 2.97289 29.25L20.0064 19.6866" fill="url(#paint2_linear_520_12230)"/>
<path d="M19.9952 9.96184L2.96166 0.398405C2.61265 0.128801 2.17931 -0.0118416 1.73653 0.00078144C1.29374 0.0134045 0.86932 0.178502 0.536621 0.46754L15.0752 14.8242L19.9952 9.96184Z" fill="url(#paint3_linear_520_12230)"/>
<path opacity="0.2" d="M19.8549 19.5828L2.96123 29.0886C2.62463 29.3373 2.21563 29.4717 1.79535 29.4717C1.37506 29.4717 0.966065 29.3373 0.629463 29.0886L0.547852 29.1693L0.629463 29.2499C0.965302 29.5004 1.37459 29.6359 1.79535 29.6359C2.2161 29.6359 2.62539 29.5004 2.96123 29.2499L19.9948 19.6865L19.8549 19.5828Z" fill="black"/>
<path opacity="0.12" d="M0.547564 29.0196C0.167562 28.569 -0.0242404 27.9921 0.0112565 27.4065V27.5793C-0.0242404 28.1649 0.167562 28.7418 0.547564 29.1924L0.629176 29.1118L0.547564 29.0196ZM25.684 16.3221L19.8546 19.5829L19.9595 19.6866L25.684 16.4834C26.0088 16.3326 26.2877 16.0998 26.4924 15.8085C26.6971 15.5172 26.8204 15.1777 26.8499 14.8242C26.7843 15.1454 26.6452 15.4474 26.4431 15.707C26.2409 15.9667 25.9813 16.1771 25.684 16.3221Z" fill="black"/>
<path opacity="0.25" d="M2.96135 0.559271L25.6844 13.3259C25.9817 13.4709 26.2413 13.6813 26.4435 13.941C26.6456 14.2007 26.7847 14.5027 26.8503 14.8238C26.8208 14.4703 26.6975 14.1308 26.4928 13.8395C26.2881 13.5482 26.0092 13.3154 25.6844 13.1646L2.96135 0.397958C1.32911 -0.512298 0 0.24817 0 2.09173V2.26456C0.0349765 0.409481 1.34077 -0.350985 2.96135 0.559271Z" fill="white"/>
<defs>
<linearGradient id="paint0_linear_520_12230" x1="13.792" y1="1.81554" x2="-5.54093" y2="21.3777" gradientUnits="userSpaceOnUse">
<stop stop-color="#00A0FF"/>
<stop offset="0.01" stop-color="#00A1FF"/>
<stop offset="0.26" stop-color="#00BEFF"/>
<stop offset="0.51" stop-color="#00D2FF"/>
<stop offset="0.76" stop-color="#00DFFF"/>
<stop offset="1" stop-color="#00E3FF"/>
</linearGradient>
<linearGradient id="paint1_linear_520_12230" x1="27.8176" y1="14.8243" x2="-0.385142" y2="14.8243" gradientUnits="userSpaceOnUse">
<stop stop-color="#FFE000"/>
<stop offset="0.41" stop-color="#FFBD00"/>
<stop offset="0.78" stop-color="#FFA500"/>
<stop offset="1" stop-color="#FF9C00"/>
</linearGradient>
<linearGradient id="paint2_linear_520_12230" x1="17.3249" y1="17.4743" x2="-8.89797" y2="43.9965" gradientUnits="userSpaceOnUse">
<stop stop-color="#FF3A44"/>
<stop offset="1" stop-color="#C31162"/>
</linearGradient>
<linearGradient id="paint3_linear_520_12230" x1="-3.11259" y1="-8.01281" x2="8.59316" y2="3.83174" gradientUnits="userSpaceOnUse">
<stop stop-color="#32A071"/>
<stop offset="0.07" stop-color="#2DA771"/>
<stop offset="0.48" stop-color="#15CF74"/>
<stop offset="0.8" stop-color="#06E775"/>
<stop offset="1" stop-color="#00F076"/>
</linearGradient>
</defs>
</svg>
