<svg width="25" height="24" viewBox="0 0 25 24" fill="none" xmlns="http://www.w3.org/2000/svg">
<path d="M12.7937 22C13.8901 22 14.7871 21.1 14.7871 20H10.8002C10.8002 21.1 11.6973 22 12.7937 22ZM18.7741 16V11C18.7741 7.93 17.1494 5.36 14.2888 4.68V4C14.2888 3.17 13.621 2.5 12.7937 2.5C11.9664 2.5 11.2986 3.17 11.2986 4V4.68C8.44793 5.36 6.81329 7.92 6.81329 11V16L4.81982 18V19H20.7675V18L18.7741 16ZM16.7806 17H8.80675V11C8.80675 8.52 10.3118 6.5 12.7937 6.5C15.2755 6.5 16.7806 8.52 16.7806 11V17Z" fill="#828282"/>
</svg>
