<svg width="25" height="24" viewBox="0 0 25 24" fill="none" xmlns="http://www.w3.org/2000/svg">
<path d="M19.7711 7H18.7744V6C18.7744 5.20435 18.4593 4.44129 17.8986 3.87868C17.3378 3.31607 16.5772 3 15.7842 3H5.81686C5.02381 3 4.26324 3.31607 3.70247 3.87868C3.1417 4.44129 2.82666 5.20435 2.82666 6V18C2.82666 18.7956 3.1417 19.5587 3.70247 20.1213C4.26324 20.6839 5.02381 21 5.81686 21H19.7711C20.5642 21 21.3247 20.6839 21.8855 20.1213C22.4463 19.5587 22.7613 18.7956 22.7613 18V10C22.7613 9.20435 22.4463 8.44129 21.8855 7.87868C21.3247 7.31607 20.5642 7 19.7711 7ZM5.81686 5H15.7842C16.0485 5 16.302 5.10536 16.489 5.29289C16.6759 5.48043 16.7809 5.73478 16.7809 6V7H5.81686C5.55251 7 5.29898 6.89464 5.11206 6.70711C4.92514 6.51957 4.82012 6.26522 4.82012 6C4.82012 5.73478 4.92514 5.48043 5.11206 5.29289C5.29898 5.10536 5.55251 5 5.81686 5ZM20.7678 15H19.7711C19.5068 15 19.2532 14.8946 19.0663 14.7071C18.8794 14.5196 18.7744 14.2652 18.7744 14C18.7744 13.7348 18.8794 13.4804 19.0663 13.2929C19.2532 13.1054 19.5068 13 19.7711 13H20.7678V15ZM20.7678 11H19.7711C18.9781 11 18.2175 11.3161 17.6567 11.8787C17.0959 12.4413 16.7809 13.2044 16.7809 14C16.7809 14.7956 17.0959 15.5587 17.6567 16.1213C18.2175 16.6839 18.9781 17 19.7711 17H20.7678V18C20.7678 18.2652 20.6628 18.5196 20.4759 18.7071C20.289 18.8946 20.0355 19 19.7711 19H5.81686C5.55251 19 5.29898 18.8946 5.11206 18.7071C4.92514 18.5196 4.82012 18.2652 4.82012 18V8.83C5.14034 8.94302 5.4774 9.00051 5.81686 9H19.7711C20.0355 9 20.289 9.10536 20.4759 9.29289C20.6628 9.48043 20.7678 9.73478 20.7678 10V11Z" fill="#828282"/>
</svg>
