<svg width="20" height="16" viewBox="0 0 20 16" fill="none" xmlns="http://www.w3.org/2000/svg">
<path d="M19.71 5.29019L15.71 1.29019C15.6168 1.19695 15.5061 1.12299 15.3843 1.07253C15.2624 1.02207 15.1319 0.996094 15 0.996094C14.7337 0.996094 14.4783 1.10188 14.29 1.29019C14.1017 1.47849 13.9959 1.73388 13.9959 2.00019C13.9959 2.26649 14.1017 2.52188 14.29 2.71019L16.59 5.00019H5.00002C4.7348 5.00019 4.48045 5.10554 4.29291 5.29308C4.10537 5.48062 4.00002 5.73497 4.00002 6.00019C4.00002 6.2654 4.10537 6.51976 4.29291 6.70729C4.48045 6.89483 4.7348 7.00019 5.00002 7.00019H19C19.1974 6.9992 19.3902 6.9398 19.5539 6.82946C19.7176 6.71913 19.845 6.5628 19.92 6.38019C19.9966 6.19807 20.0175 5.99736 19.9801 5.80337C19.9428 5.60938 19.8488 5.43081 19.71 5.29019ZM15 9.00019H1.00002C0.802592 9.00117 0.609876 9.06057 0.446156 9.17091C0.282435 9.28124 0.155037 9.43757 0.0800174 9.62019C0.00343795 9.8023 -0.0174847 10.003 0.0198894 10.197C0.0572635 10.391 0.15126 10.5696 0.290017 10.7102L4.29002 14.7102C4.38298 14.8039 4.49358 14.8783 4.61544 14.9291C4.7373 14.9798 4.86801 15.006 5.00002 15.006C5.13203 15.006 5.26274 14.9798 5.38459 14.9291C5.50645 14.8783 5.61705 14.8039 5.71002 14.7102C5.80375 14.6172 5.87814 14.5066 5.92891 14.3848C5.97968 14.2629 6.00582 14.1322 6.00582 14.0002C6.00582 13.8682 5.97968 13.7375 5.92891 13.6156C5.87814 13.4937 5.80375 13.3831 5.71002 13.2902L3.41002 11.0002H15C15.2652 11.0002 15.5196 10.8948 15.7071 10.7073C15.8947 10.5198 16 10.2654 16 10.0002C16 9.73497 15.8947 9.48062 15.7071 9.29308C15.5196 9.10554 15.2652 9.00019 15 9.00019Z" fill="black"/>
</svg>
