<svg width="63" height="63" viewBox="0 0 63 63" fill="none" xmlns="http://www.w3.org/2000/svg">
<g clip-path="url(#clip0_520_20628)">
<path d="M32.001 20.5581C26.2438 20.5581 21.5601 25.2419 21.5601 30.999C21.5601 36.7562 26.2438 41.44 32.001 41.44C37.7581 41.44 42.4419 36.7562 42.4419 30.999C42.4419 25.2419 37.7582 20.5581 32.001 20.5581ZM28.7382 39.4615V37.6737C28.7382 36.8024 29.0776 35.9831 29.6941 35.3666C30.3099 34.7504 31.1291 34.411 32.0009 34.411C33.8 34.411 35.2636 35.8747 35.2636 37.6737V39.4615C34.2506 39.8534 33.1506 40.0689 32.001 40.0689C30.8514 40.0689 29.7512 39.8533 28.7382 39.4615ZM28.7384 29.7771C28.7384 27.978 30.202 26.5144 32.0011 26.5144C33.8002 26.5144 35.2637 27.978 35.2637 29.7771C35.2637 31.5761 33.8002 33.0397 32.0011 33.0397C30.202 33.0397 28.7384 31.5761 28.7384 29.7771ZM36.6348 38.7928V37.6736C36.6348 36.006 35.7489 34.5417 34.4234 33.7254C35.749 32.9091 36.6349 31.4448 36.6349 29.7771C36.6349 27.222 34.5562 25.1433 32.0011 25.1433C29.446 25.1433 27.3672 27.222 27.3672 29.7771C27.3672 31.4437 28.2521 32.9072 29.5763 33.7238C29.2707 33.9122 28.9845 34.1369 28.7244 34.3972C27.8492 35.2725 27.3671 36.4361 27.3671 37.6736V38.7927C24.7129 37.2086 22.9312 34.3082 22.9312 30.999C22.9312 25.998 26.9999 21.9293 32.001 21.9293C37.0021 21.9293 41.0708 25.998 41.0708 30.999C41.0708 34.3083 39.289 37.2088 36.6348 38.7928Z" fill="#FF4400"/>
<path d="M46.761 28.3185C46.7019 27.9923 46.4179 27.755 46.0863 27.755H45.2516C44.9224 26.4025 44.3902 25.1185 43.6642 23.9251L44.2547 23.3346C44.4891 23.1002 44.5222 22.7315 44.3331 22.459C43.3019 20.9729 42.0259 19.6972 40.5407 18.6674C40.2682 18.4785 39.8996 18.5116 39.6652 18.746L39.0749 19.3363C37.8819 18.6099 36.5981 18.0776 35.2456 17.7483V16.9142C35.2456 16.5828 35.0086 16.2988 34.6825 16.2397C32.9298 15.9214 31.0708 15.9214 29.3182 16.2397C28.9921 16.2988 28.7551 16.5828 28.7551 16.9142V17.7483C27.403 18.0775 26.1193 18.6097 24.9259 19.3357L24.3354 18.7453C24.101 18.5109 23.7325 18.4778 23.46 18.6667C21.9737 19.6975 20.6977 20.9734 19.6675 22.4592C19.4785 22.7316 19.5117 23.1002 19.746 23.3346L20.3364 23.925C19.6108 25.1172 19.0784 26.4013 18.7486 27.755H17.9136C17.5821 27.755 17.298 27.9923 17.239 28.3185C17.0804 29.1954 17 30.0974 17 30.9996C17 31.903 17.0807 32.8054 17.2398 33.6817C17.299 34.0078 17.583 34.2449 17.9143 34.2449H18.7491C19.0783 35.5972 19.6105 36.8813 20.3366 38.0748L19.7461 38.6652C19.5116 38.8997 19.4785 39.2683 19.6677 39.5408C20.6989 41.0269 21.9749 42.3027 23.4601 43.3325C23.7325 43.5214 24.1011 43.4883 24.3355 43.2539L24.9258 42.6636C26.118 43.3892 27.4017 43.9216 28.7551 44.2514V45.0856C28.7551 45.417 28.9922 45.7009 29.3182 45.7601C30.1946 45.9192 31.097 45.9999 32.0004 45.9999C32.9039 45.9999 33.8062 45.9192 34.6826 45.7601C35.0087 45.7009 35.2457 45.417 35.2457 45.0856V44.2508C36.5988 43.9215 37.8825 43.3893 39.075 42.6635L39.6654 43.2538C39.8997 43.4882 40.2684 43.5213 40.5408 43.3324C42.0264 42.3023 43.3024 41.0263 44.3333 39.5399C44.5223 39.2674 44.4892 38.8988 44.2548 38.6644L43.6643 38.074C44.3896 36.8816 44.9218 35.5978 45.2516 34.2448H46.0858C46.4172 34.2448 46.7011 34.0077 46.7603 33.6817C46.9194 32.8054 47.0001 31.9029 47.0001 30.9995C47 30.0974 46.9196 29.1954 46.761 28.3185ZM45.501 32.8736H44.7015C44.3749 32.8736 44.0936 33.1041 44.0294 33.4243C43.7155 34.9889 43.1067 36.4577 42.2199 37.79C42.0389 38.0619 42.0748 38.4237 42.3058 38.6546L42.8717 39.2205C42.1126 40.2239 41.2243 41.1121 40.2214 41.8708L39.6555 41.3049C39.4245 41.0739 39.0625 41.038 38.7906 41.2192C37.4585 42.1066 35.9897 42.7153 34.4256 43.0284C34.1051 43.0926 33.8745 43.374 33.8745 43.7007V44.5008C32.6405 44.6706 31.3602 44.6706 30.1262 44.5008V43.7013C30.1262 43.3747 29.8958 43.0934 29.5754 43.0292C28.0106 42.7152 26.5418 42.1062 25.21 41.2191C24.9381 41.0379 24.5762 41.0738 24.3452 41.3049L23.7792 41.8708C22.7766 41.1124 21.8883 40.2242 21.1291 39.2212L21.6949 38.6554C21.9259 38.4245 21.9618 38.0626 21.7808 37.7908C20.893 36.4569 20.2842 34.9879 19.9714 33.4248C19.9073 33.1044 19.626 32.8737 19.2992 32.8737H18.499C18.4141 32.2567 18.3711 31.6286 18.3711 30.9996C18.3711 30.3713 18.4139 29.7434 18.4987 29.1261H19.2985C19.6252 29.1261 19.9065 28.8956 19.9706 28.5754C20.2845 27.01 20.8936 25.5411 21.7807 24.2094C21.9618 23.9374 21.926 23.5755 21.6949 23.3444L21.129 22.7785C21.8877 21.7756 22.7759 20.8874 23.7793 20.1283L24.3452 20.6942C24.5762 20.9252 24.938 20.9611 25.2099 20.7801C26.5437 19.8923 28.0124 19.2835 29.5752 18.9707C29.8956 18.9065 30.1262 18.6252 30.1262 18.2985V17.499C31.3602 17.3291 32.6405 17.3291 33.8745 17.499V18.2984C33.8745 18.6252 34.1051 18.9065 34.4256 18.9706C35.9888 19.2835 37.4574 19.8925 38.7906 20.7806C39.0624 20.9618 39.4244 20.9258 39.6555 20.6949L40.2214 20.129C41.224 20.8874 42.1123 21.7756 42.8716 22.7787L42.3058 23.3444C42.0748 23.5755 42.0389 23.9372 42.2199 24.2091C43.1077 25.5429 43.7164 27.0118 44.0293 28.5752C44.0934 28.8956 44.3747 29.1262 44.7015 29.1262H45.5012C45.586 29.7435 45.6288 30.3714 45.6288 30.9996C45.6288 31.6286 45.5859 32.2566 45.501 32.8736Z" fill="#FF4400"/>
</g>
<defs>
<clipPath id="clip0_520_20628">
<rect width="30" height="30" fill="white" transform="translate(17 16)"/>
</clipPath>
</defs>
</svg>
