<svg width="63" height="63" viewBox="0 0 63 63" fill="none" xmlns="http://www.w3.org/2000/svg">
<path d="M45.8953 34.1749L44.8605 33.5774C45.0342 32.7131 45.1222 31.8475 45.1222 31C45.1222 30.1402 45.0357 29.2738 44.8648 28.42L45.8953 27.825C46.2144 27.6408 46.4427 27.3433 46.5381 26.9873C46.6334 26.6314 46.5845 26.2596 46.4002 25.9404L43.5822 21.0595C43.3979 20.7404 43.1005 20.512 42.7445 20.4167C42.3885 20.3214 42.0168 20.3703 41.6976 20.5545L40.6663 21.15C39.3636 20.0039 37.8305 19.1169 36.1985 18.5651V17.3796C36.1985 16.6189 35.5796 16 34.8189 16H29.1829C28.4221 16 27.8032 16.6189 27.8032 17.3796V18.5651C26.1799 19.1148 24.6489 20.0029 23.3414 21.1535L22.3041 20.5545C21.9849 20.3703 21.6131 20.3213 21.2572 20.4167C20.9012 20.5121 20.6037 20.7404 20.4195 21.0595L17.6015 25.9404C17.4172 26.2596 17.3683 26.6314 17.4636 26.9873C17.5589 27.3433 17.7873 27.6408 18.1064 27.825L19.1412 28.4225C18.9675 29.2869 18.8795 30.1524 18.8795 31C18.8795 31.8597 18.9661 32.7261 19.1369 33.5799L18.1065 34.1749C17.4476 34.5553 17.2211 35.4007 17.6015 36.0595L20.4195 40.9405C20.7998 41.5993 21.6452 41.8258 22.3041 41.4455L23.3353 40.85C24.6381 41.9961 26.1711 42.8831 27.8032 43.435V44.6204C27.8032 45.3811 28.4221 46 29.1829 46H34.8189C35.5796 46 36.1985 45.3811 36.1985 44.6204V43.4349C37.8219 42.8852 39.3529 41.9971 40.6604 40.8466L41.6976 41.4455C42.3564 41.8258 43.2019 41.5993 43.5823 40.9405L46.4003 36.0595C46.7806 35.4007 46.5541 34.5553 45.8953 34.1749ZM45.6376 35.6192L42.8196 40.5001C42.682 40.7385 42.3762 40.8204 42.1379 40.6828L40.8233 39.9238C40.6563 39.8273 40.4458 39.8509 40.3042 39.9819C38.9602 41.2249 37.3432 42.1628 35.6279 42.6941C35.4436 42.7513 35.3179 42.9217 35.3179 43.1147V44.6204C35.3179 44.8955 35.094 45.1194 34.8189 45.1194H29.1829C28.9077 45.1194 28.6838 44.8955 28.6838 44.6204V43.1148C28.6838 42.9218 28.5581 42.7513 28.3739 42.6942C26.6481 42.1595 25.029 41.2228 23.6916 39.9854C23.6081 39.9082 23.5008 39.8683 23.3924 39.8683C23.317 39.8683 23.241 39.8877 23.1724 39.9273L21.8638 40.6828C21.6254 40.8203 21.3197 40.7384 21.1821 40.5001L18.3641 35.6192C18.2266 35.3809 18.3085 35.0751 18.5468 34.9375L19.8543 34.1826C20.0213 34.0862 20.1061 33.8924 20.0637 33.7043C19.8623 32.8116 19.7602 31.9016 19.7602 31C19.7602 30.1135 19.8638 29.2045 20.0682 28.2981C20.1106 28.1101 20.0258 27.9163 19.8588 27.8199L18.5468 27.0624C18.4314 26.9958 18.3488 26.8882 18.3143 26.7594C18.2798 26.6307 18.2975 26.4962 18.3641 26.3808L21.1821 21.4998C21.2488 21.3844 21.3564 21.3018 21.4852 21.2673C21.6139 21.2328 21.7484 21.2505 21.8639 21.3172L23.1785 22.0761C23.3455 22.1727 23.556 22.1491 23.6976 22.0181C25.0416 20.775 26.6586 19.8372 28.3739 19.3058C28.5582 19.2487 28.6839 19.0782 28.6839 18.8852V17.3796C28.6839 17.1045 28.9078 16.8806 29.1829 16.8806H34.8189C35.0941 16.8806 35.3179 17.1045 35.3179 17.3796V18.8852C35.3179 19.0782 35.4436 19.2487 35.6279 19.3058C37.3537 19.8404 38.9727 20.7771 40.3102 22.0146C40.4518 22.1456 40.6623 22.1691 40.8294 22.0727L42.138 21.3172C42.2535 21.2505 42.388 21.2328 42.5167 21.2673C42.6454 21.3018 42.753 21.3844 42.8197 21.4998L45.6377 26.3808C45.7043 26.4962 45.7221 26.6307 45.6876 26.7594C45.653 26.8882 45.5705 26.9958 45.4551 27.0624L44.1475 27.8174C43.9806 27.9138 43.8957 28.1076 43.9382 28.2956C44.1396 29.1883 44.2417 30.0982 44.2417 31C44.2417 31.8865 44.1381 32.7955 43.9336 33.7018C43.8913 33.8899 43.9761 34.0836 44.143 34.18L45.4551 34.9375C45.6933 35.0751 45.7752 35.3809 45.6376 35.6192Z" fill="#FF4400"/>
<path d="M31.9998 22.1055C27.0954 22.1055 23.1055 26.0955 23.1055 30.9998C23.1055 35.9041 27.0954 39.8941 31.9998 39.8941C36.9042 39.8941 40.8941 35.9041 40.8941 30.9998C40.8941 26.0955 36.9042 22.1055 31.9998 22.1055ZM31.9998 39.0135C27.581 39.0135 23.9861 35.4185 23.9861 30.9998C23.9861 26.581 27.581 22.9861 31.9998 22.9861C36.4185 22.9861 40.0135 26.581 40.0135 30.9998C40.0135 35.4185 36.4185 39.0135 31.9998 39.0135Z" fill="#FF4400"/>
<path d="M33.6437 28.6807H31.9999C31.7567 28.6807 31.5596 28.8778 31.5596 29.121V32.8783C31.5596 33.1215 31.7567 33.3186 31.9999 33.3186C32.2431 33.3186 32.4402 33.1215 32.4402 32.8783V31.9096H33.6437C34.534 31.9096 35.2582 31.1854 35.2582 30.2951C35.2582 29.4049 34.534 28.6807 33.6437 28.6807ZM33.6437 31.029H32.4402V29.5613H33.6437C34.0484 29.5613 34.3776 29.8905 34.3776 30.2951C34.3776 30.6998 34.0484 31.029 33.6437 31.029Z" fill="#FF4400"/>
<path d="M29.5961 28.9664C29.5316 28.7946 29.3674 28.6807 29.1838 28.6807H28.7142C28.5306 28.6807 28.3663 28.7945 28.3019 28.9664L26.8929 32.7237C26.8075 32.9514 26.9229 33.2052 27.1506 33.2906C27.3783 33.376 27.6321 33.2606 27.7175 33.033L27.9625 32.3793H29.9354L30.1805 33.0329C30.2468 33.2097 30.4146 33.3187 30.5928 33.3187C30.6442 33.3187 30.6965 33.3097 30.7474 33.2906C30.975 33.2053 31.0905 32.9514 31.005 32.7237L29.5961 28.9664ZM28.2928 31.4987L28.949 29.7487L29.6052 31.4987H28.2928Z" fill="#FF4400"/>
<path d="M36.2269 28.6807C35.9838 28.6807 35.7866 28.8778 35.7866 29.121V32.8783C35.7866 33.1215 35.9838 33.3186 36.2269 33.3186C36.4701 33.3186 36.6672 33.1215 36.6672 32.8783V29.121C36.6672 28.8778 36.4701 28.6807 36.2269 28.6807Z" fill="#FF4400"/>
<path d="M35.151 21.1255C35.4566 21.2229 35.7612 21.3361 36.0563 21.4617C36.1126 21.4857 36.171 21.497 36.2286 21.497C36.3998 21.497 36.5626 21.3965 36.6339 21.229C36.7291 21.0053 36.625 20.7467 36.4012 20.6515C36.0808 20.5151 35.7502 20.3923 35.4183 20.2865C35.1867 20.2127 34.939 20.3407 34.8651 20.5723C34.7913 20.804 34.9193 21.0517 35.151 21.1255Z" fill="#FF4400"/>
<path d="M22.8982 35.9551C22.7818 35.7416 22.5142 35.663 22.3008 35.7795C22.0873 35.8959 22.0087 36.1634 22.1252 36.3769C22.3079 36.7117 22.5101 37.0412 22.7263 37.356C22.8116 37.4802 22.9494 37.547 23.0896 37.547C23.1755 37.547 23.2623 37.522 23.3385 37.4697C23.539 37.332 23.5899 37.0579 23.4522 36.8575C23.253 36.5673 23.0666 36.2637 22.8982 35.9551Z" fill="#FF4400"/>
<path d="M31.1007 41.3234C28.7413 41.1201 26.5016 40.0977 24.7945 38.4443C24.6197 38.2751 24.341 38.2796 24.1719 38.4543C24.0027 38.629 24.0071 38.9078 24.1818 39.0769C26.0341 40.8707 28.4644 41.9802 31.0251 42.2008C31.0379 42.2019 31.0507 42.2024 31.0634 42.2024C31.2894 42.2024 31.4818 42.0293 31.5016 41.7999C31.5224 41.5577 31.3429 41.3443 31.1007 41.3234Z" fill="#FF4400"/>
<path d="M38.3372 21.7116C38.1364 21.5744 37.8625 21.6259 37.7253 21.8267C37.5881 22.0274 37.6396 22.3014 37.8403 22.4386C39.886 23.8366 41.3657 25.917 42.007 28.2963C42.0599 28.4927 42.2377 28.6221 42.4318 28.6221C42.4698 28.6221 42.5083 28.6172 42.5467 28.6069C42.7815 28.5436 42.9205 28.3019 42.8572 28.0672C42.1614 25.4852 40.5562 23.2281 38.3372 21.7116Z" fill="#FF4400"/>
</svg>
