<svg width="25" height="24" viewBox="0 0 25 24" fill="none" xmlns="http://www.w3.org/2000/svg">
<path d="M15.8539 11.25L14.9569 12.17C14.2392 12.89 13.7907 13.5 13.7907 15H11.7972V14.5C11.7972 13.39 12.2458 12.39 12.9634 11.67L14.1994 10.41C14.5682 10.05 14.7874 9.55 14.7874 9C14.7874 7.89 13.8904 7 12.794 7C12.2653 7 11.7582 7.21071 11.3844 7.58579C11.0105 7.96086 10.8005 8.46957 10.8005 9H8.80705C8.80705 7.93913 9.2271 6.92172 9.9748 6.17157C10.7225 5.42143 11.7366 5 12.794 5C13.8514 5 14.8655 5.42143 15.6132 6.17157C16.3609 6.92172 16.7809 7.93913 16.7809 9C16.7809 9.88 16.4221 10.67 15.8539 11.25ZM13.7907 19H11.7972V17H13.7907V19ZM12.794 2C11.4851 2 10.1889 2.25866 8.97965 2.7612C7.77036 3.26375 6.67157 4.00035 5.74602 4.92893C3.87679 6.8043 2.82666 9.34784 2.82666 12C2.82666 14.6522 3.87679 17.1957 5.74602 19.0711C6.67157 19.9997 7.77036 20.7362 8.97965 21.2388C10.1889 21.7413 11.4851 22 12.794 22C15.4375 22 17.9727 20.9464 19.8419 19.0711C21.7112 17.1957 22.7613 14.6522 22.7613 12C22.7613 6.47 18.276 2 12.794 2Z" fill="#828282"/>
</svg>
