<svg width="25" height="24" viewBox="0 0 25 24" fill="none" xmlns="http://www.w3.org/2000/svg">
<path d="M20.7678 8H4.82012V6H20.7678V8ZM20.7678 18H4.82012V12H20.7678V18ZM20.7678 4H4.82012C3.71375 4 2.82666 4.89 2.82666 6V18C2.82666 18.5304 3.03669 19.0391 3.41053 19.4142C3.78438 19.7893 4.29142 20 4.82012 20H20.7678C21.2965 20 21.8036 19.7893 22.1774 19.4142C22.5513 19.0391 22.7613 18.5304 22.7613 18V6C22.7613 4.89 21.8642 4 20.7678 4ZM7.81032 22H9.80378V24H7.81032V22ZM11.7972 22H13.7907V24H11.7972V22ZM15.7842 22H17.7776V24H15.7842V22Z" fill="#828282"/>
</svg>
