<svg width="136" height="49" viewBox="0 0 136 49" fill="none" xmlns="http://www.w3.org/2000/svg">
<path d="M81.0907 29.796C81.0907 29.796 95.4356 9.59324 120.892 1L135 18.9711C135 18.9711 112.831 23.8809 95.3467 47.208L81.0907 29.796Z" stroke="white" stroke-miterlimit="10"/>
<path d="M85.7979 28.1536C85.8802 28.0427 85.9853 27.903 86.113 27.7366C86.4723 27.2682 87.0105 26.589 87.7223 25.7505C89.1462 24.0734 91.2637 21.7605 94.0332 19.2245C99.5144 14.2056 107.536 8.32484 117.776 4.76058L128.704 18.853C128.675 18.8612 128.645 18.8697 128.614 18.8784C128.078 19.0312 127.298 19.2705 126.319 19.6183C124.362 20.3139 121.606 21.4438 118.398 23.1848C112.097 26.6052 104.051 32.3856 96.8962 41.8639L85.7979 28.1536Z" stroke="white"/>
<path d="M0 28.9332V9.24951H4.20856V25.3544H10.9314V28.9332H0Z" fill="white"/>
<path d="M13.0561 10.3229C13.0643 9.73316 13.3022 9.16984 13.7193 8.75277C14.1363 8.33569 14.6997 8.09775 15.2894 8.08955C15.5848 8.08559 15.8778 8.14133 16.1511 8.25343C16.4243 8.36553 16.6721 8.53168 16.8795 8.7419C17.091 8.94827 17.2591 9.19486 17.3739 9.46716C17.4886 9.73946 17.5478 10.032 17.5478 10.3275C17.5478 10.623 17.4886 10.9155 17.3739 11.1878C17.2591 11.4601 17.091 11.7067 16.8795 11.913C16.6732 12.1253 16.4258 12.2934 16.1525 12.4071C15.8791 12.5208 15.5855 12.5778 15.2894 12.5745C14.9943 12.5771 14.7017 12.5185 14.4304 12.4023C14.159 12.2861 13.9147 12.1149 13.7129 11.8995C13.5021 11.6951 13.3351 11.4499 13.2221 11.1788C13.1092 10.9078 13.0527 10.6166 13.0561 10.3229ZM13.3913 28.933V15.7411H17.2148V28.933H13.3913Z" fill="white"/>
<path d="M24.8753 28.9332H21.0427V15.7412H24.8753V17.8115C25.3988 17.0384 26.0834 16.3878 26.8822 15.9043C27.6246 15.4933 28.4618 15.284 29.3103 15.2972C30.2466 15.2565 31.1743 15.4912 31.9786 15.9722C32.6901 16.4544 33.2071 17.1737 33.4374 18.0018C33.9708 17.1802 34.6813 16.4883 35.5167 15.9768C36.2646 15.5595 37.1014 15.3274 37.9574 15.2998C38.8133 15.2722 39.6634 15.45 40.4365 15.8182C41.089 16.1658 41.6176 16.7071 41.9496 17.3676C42.1471 17.7788 42.283 18.2169 42.3528 18.6677C42.4496 19.3853 42.4905 20.1093 42.4751 20.8332V28.9332H38.6426V22.4097C38.6426 20.806 38.478 19.7399 38.1488 19.2113C37.9609 18.9376 37.7027 18.7195 37.4014 18.58C37.1 18.4404 36.7667 18.3847 36.4363 18.4186C36.0125 18.3872 35.5882 18.4734 35.2101 18.6676C34.8321 18.8618 34.5149 19.1566 34.2936 19.5194C33.8496 20.2563 33.6276 21.4644 33.6276 23.1436V28.9332H29.7951V22.4097C29.7951 20.8603 29.6441 19.8123 29.3421 19.2657C29.1857 18.9931 28.9546 18.771 28.676 18.6257C28.3974 18.4804 28.0831 18.418 27.7701 18.4457C27.3336 18.4135 26.8968 18.5017 26.507 18.7006C26.1172 18.8995 25.7894 19.2015 25.5593 19.5738C25.1003 20.3137 24.8723 21.5036 24.8753 23.1436V28.9332Z" fill="white"/>
<path d="M60.007 22.3823C60.0327 23.3235 59.861 24.2597 59.5028 25.1304C59.1447 26.0012 58.6081 26.7873 57.9277 27.438C56.4766 28.7389 54.5965 29.4583 52.6477 29.4583C50.699 29.4583 48.8188 28.7389 47.3678 27.438C46.6891 26.7866 46.1546 26.0001 45.7988 25.1292C45.4429 24.2584 45.2737 23.3226 45.302 22.3823C45.274 21.4382 45.4447 20.4986 45.8029 19.6246C46.1611 18.7506 46.6988 17.9615 47.3814 17.3085C48.8321 16.0089 50.7113 15.2903 52.659 15.2903C54.6068 15.2903 56.486 16.0089 57.9367 17.3085C58.6165 17.9632 59.1518 18.7527 59.5084 19.6265C59.8649 20.5003 60.0348 21.439 60.007 22.3823ZM56.1065 22.3551C56.1297 21.885 56.0583 21.415 55.8964 20.973C55.7346 20.531 55.4856 20.126 55.1642 19.782C54.8319 19.4563 54.4357 19.2028 54.0007 19.0376C53.5657 18.8723 53.1012 18.7987 52.6364 18.8216C52.174 18.7981 51.7117 18.871 51.2789 19.0355C50.8461 19.2001 50.4522 19.4527 50.1221 19.7775C49.808 20.1258 49.5661 20.533 49.4106 20.9754C49.2551 21.4179 49.189 21.8869 49.2161 22.3551C49.1641 23.3019 49.49 24.2306 50.1221 24.9374C50.4492 25.2676 50.8421 25.5253 51.2752 25.6939C51.7084 25.8625 52.1721 25.9381 52.6364 25.9159C53.1012 25.9375 53.5653 25.8625 53.9996 25.6956C54.434 25.5287 54.829 25.2736 55.1597 24.9464C55.4832 24.6001 55.7338 24.1922 55.8965 23.747C56.0591 23.3018 56.1306 22.8285 56.1065 22.3551Z" fill="white"/>
<path d="M61.6107 26.6181L64.5553 25.1005C64.5987 25.3453 64.6913 25.5788 64.8275 25.7867C64.9638 25.9946 65.1409 26.1727 65.3481 26.3101C65.8223 26.6211 66.3805 26.7792 66.9473 26.7631C67.4638 26.7916 67.9777 26.6722 68.4287 26.4188C68.5952 26.3223 68.7324 26.1824 68.8257 26.0141C68.9191 25.8458 68.965 25.6553 68.9587 25.4629C68.9587 24.8287 68.323 24.2957 67.0515 23.8638L66.1092 23.5285C64.5599 22.9457 63.4862 22.3582 62.8882 21.7663C62.5952 21.4823 62.3635 21.1412 62.2077 20.764C62.0518 20.3869 61.9751 19.9817 61.9822 19.5737C61.9675 18.9683 62.098 18.3681 62.3628 17.8235C62.6277 17.2789 63.0191 16.8056 63.5043 16.4433C64.5399 15.7487 65.7394 15.3375 66.9834 15.2509C68.2273 15.1642 69.4723 15.4051 70.5941 15.9495C71.4316 16.3955 72.0964 17.1081 72.4832 17.9745L69.6745 19.3744C69.549 18.919 69.2686 18.5217 68.8817 18.2509C68.4598 18.0051 67.9816 17.8727 67.4934 17.8663C67.0052 17.86 66.5237 17.9799 66.0956 18.2146C65.9379 18.3078 65.807 18.4402 65.7157 18.599C65.6244 18.7578 65.5758 18.9375 65.5746 19.1207C65.5746 19.7775 66.4399 20.3846 68.1795 20.9327L68.6325 21.0777C70.0777 21.5307 71.1015 22.1061 71.7131 22.7403C72.0164 23.0627 72.2527 23.4422 72.4083 23.8567C72.5638 24.2712 72.6355 24.7125 72.6191 25.1549C72.6465 25.7613 72.5245 26.3651 72.2638 26.9133C72.0031 27.4616 71.6118 27.9373 71.1241 28.2988C70.1139 29.069 68.7458 29.4586 67.0243 29.4586C65.8169 29.4933 64.6193 29.232 63.5361 28.6975C62.6522 28.2758 61.9633 27.5318 61.6107 26.6181Z" fill="white"/>
<path d="M75.7903 28.9332V9.24951H80.6376C83.2198 9.24951 85.1225 9.7433 86.3592 10.7264C87.596 11.7094 88.203 13.2316 88.203 15.2973C88.203 17.2091 87.5824 18.7071 86.3411 19.7913C85.0998 20.8755 83.3799 21.4176 81.1812 21.4176H80.026V28.9332H75.7903ZM80.026 18.1378H80.6376C81.7852 18.1378 82.6188 17.8992 83.1383 17.422C83.6547 16.969 83.9175 16.1852 83.9175 15.1569C83.9515 14.7679 83.8993 14.3763 83.7646 14.0098C83.6299 13.6434 83.4161 13.3111 83.1383 13.0368C82.6188 12.5928 81.7852 12.3708 80.6376 12.3708H80.0306L80.026 18.1378Z" fill="white"/>
<path d="M103.003 28.9332H99.293L99.3473 27.0351C98.8954 27.8017 98.2482 28.4348 97.4718 28.8698C96.6445 29.2831 95.7279 29.4854 94.8035 29.4587C93.9952 29.4834 93.1922 29.3198 92.4579 28.981C91.7236 28.6421 91.0781 28.1372 90.5723 27.5062C89.5032 26.2076 88.9686 24.4906 88.9686 22.3554C88.9686 20.1356 89.4956 18.4035 90.5497 17.1592C91.6037 15.9149 93.0654 15.2943 94.9349 15.2973C95.8375 15.2757 96.7289 15.5013 97.5126 15.9497C98.2924 16.4315 98.9339 17.1074 99.3745 17.9112V15.7413H102.999L103.003 28.9332ZM99.5104 22.3191C99.5635 21.302 99.241 20.3009 98.6044 19.5059C98.3053 19.1634 97.933 18.8927 97.515 18.7139C97.0969 18.535 96.644 18.4527 96.1898 18.473C95.7303 18.4496 95.2714 18.5299 94.8472 18.7079C94.4229 18.8859 94.0441 19.1571 93.7389 19.5013C93.0993 20.2965 92.7765 21.3002 92.8329 22.3191C92.7706 23.324 93.0856 24.3159 93.7163 25.1007C94.3719 25.7399 95.2514 26.0977 96.1671 26.0977C97.0828 26.0977 97.9623 25.7399 98.618 25.1007C99.2488 24.3155 99.5667 23.3247 99.5104 22.3191Z" fill="white"/>
<path d="M109.862 27.9093L104.552 15.7412H108.974L111.239 21.78C111.402 22.1999 111.528 22.6335 111.615 23.0756C111.718 23.6165 111.794 24.1624 111.842 24.711C111.932 24.2263 112.045 23.7325 112.177 23.2296C112.308 22.7268 112.48 22.1967 112.675 21.6305L114.677 15.7412H119.063L111.235 34.9266H106.999L109.862 27.9093Z" fill="white"/>
</svg>
