<svg width="176" height="61" viewBox="0 0 176 61" fill="none" xmlns="http://www.w3.org/2000/svg">
<path d="M106.614 39.5716C106.043 38.8744 106.008 37.89 106.561 37.179C110.608 31.9803 127.967 11.3821 155.986 1.46414C156.785 1.18136 157.678 1.44562 158.201 2.1122L173.684 21.8347C174.594 22.9931 174.006 24.7511 172.603 25.1985C164.842 27.673 143.665 36.1382 125.718 58.9682C124.916 59.9889 123.364 60.0296 122.541 59.025L106.614 39.5716Z" stroke="#00008B" stroke-miterlimit="10"/>
<path d="M112.279 37.1364C111.853 36.6108 111.835 35.9014 112.231 35.3916C115.777 30.8228 129.835 14.2005 152.329 6.06284C152.925 5.84724 153.598 6.04549 153.991 6.55221L166.264 22.3798C166.936 23.2454 166.503 24.6099 165.416 24.9736C158.637 27.2415 141.787 34.3836 127.365 52.7525C126.749 53.5373 125.568 53.5537 124.955 52.7958L112.279 37.1364Z" stroke="#00008B"/>
<path d="M0.353027 37.2707V11.7119H5.81773V32.6237H14.5471V37.2707H0.353027Z" fill="#00008B"/>
<path d="M17.3061 13.1063C17.3167 12.3405 17.6257 11.609 18.1673 11.0675C18.7088 10.5259 19.4403 10.217 20.2061 10.2063C20.5896 10.2012 20.9701 10.2735 21.3249 10.4191C21.6797 10.5647 22.0014 10.7804 22.2708 11.0534C22.5454 11.3213 22.7637 11.6415 22.9127 11.9951C23.0617 12.3487 23.1385 12.7285 23.1385 13.1122C23.1385 13.4959 23.0617 13.8757 22.9127 14.2293C22.7637 14.5829 22.5454 14.9031 22.2708 15.171C22.0028 15.4467 21.6816 15.6649 21.3267 15.8126C20.9718 15.9602 20.5905 16.0341 20.2061 16.0298C19.8228 16.0333 19.443 15.9572 19.0906 15.8063C18.7383 15.6555 18.4211 15.4331 18.159 15.1534C17.8852 14.888 17.6684 14.5696 17.5217 14.2177C17.3751 13.8657 17.3017 13.4876 17.3061 13.1063ZM17.7414 37.271V20.1416H22.7061V37.271H17.7414Z" fill="#00008B"/>
<path d="M32.653 37.2704H27.6765V20.1409H32.653V22.8292C33.3327 21.8253 34.2217 20.9805 35.2589 20.3527C36.2229 19.819 37.31 19.5472 38.4118 19.5645C39.6276 19.5116 40.8321 19.8163 41.8765 20.4409C42.8004 21.067 43.4717 22.001 43.7706 23.0762C44.4633 22.0094 45.3858 21.111 46.4706 20.4468C47.4417 19.905 48.5283 19.6036 49.6397 19.5678C50.7511 19.532 51.8549 19.7628 52.8589 20.2409C53.706 20.6922 54.3925 21.3951 54.8236 22.2527C55.0801 22.7867 55.2565 23.3555 55.3471 23.9409C55.4729 24.8727 55.526 25.8127 55.5059 26.7527V37.2704H50.5295V28.7998C50.5295 26.7174 50.3157 25.3331 49.8883 24.6468C49.6443 24.2913 49.3091 24.0081 48.9178 23.827C48.5265 23.6458 48.0937 23.5734 47.6647 23.6174C47.1144 23.5767 46.5634 23.6886 46.0725 23.9408C45.5816 24.193 45.1698 24.5757 44.8824 25.0468C44.3059 26.0037 44.0177 27.5723 44.0177 29.7527V37.2704H39.0412V28.7998C39.0412 26.788 38.8451 25.4272 38.453 24.7174C38.25 24.3635 37.9499 24.0751 37.5882 23.8864C37.2264 23.6977 36.8182 23.6166 36.4118 23.6527C35.8451 23.6109 35.2778 23.7254 34.7717 23.9836C34.2655 24.2419 33.8399 24.634 33.5412 25.1174C32.9451 26.0782 32.6491 27.6233 32.653 29.7527V37.2704Z" fill="#00008B"/>
<path d="M78.2707 28.7645C78.3041 29.9866 78.081 31.2022 77.616 32.3328C77.151 33.4635 76.4542 34.4842 75.5707 35.3292C73.6866 37.0183 71.2452 37.9525 68.7148 37.9525C66.1844 37.9525 63.743 37.0183 61.8589 35.3292C60.9777 34.4833 60.2836 33.4621 59.8216 32.3313C59.3596 31.2006 59.1398 29.9855 59.1766 28.7645C59.1402 27.5385 59.3618 26.3186 59.8269 25.1837C60.292 24.0487 60.9903 23.0242 61.8766 22.1763C63.7603 20.4888 66.2004 19.5557 68.7295 19.5557C71.2586 19.5557 73.6987 20.4888 75.5824 22.1763C76.4651 23.0263 77.1602 24.0516 77.6232 25.1862C78.0861 26.3207 78.3067 27.5396 78.2707 28.7645ZM73.206 28.7292C73.2361 28.1187 73.1433 27.5084 72.9332 26.9345C72.723 26.3606 72.3997 25.8347 71.9824 25.388C71.5509 24.9651 71.0365 24.636 70.4716 24.4214C69.9068 24.2068 69.3036 24.1113 68.7001 24.141C68.0996 24.1105 67.4994 24.2051 66.9374 24.4188C66.3754 24.6324 65.8639 24.9605 65.4354 25.3822C65.0275 25.8344 64.7134 26.3631 64.5115 26.9377C64.3095 27.5123 64.2237 28.1212 64.2589 28.7292C64.1914 29.9586 64.6145 31.1645 65.4354 32.0822C65.8601 32.5109 66.3703 32.8456 66.9327 33.0645C67.4951 33.2834 68.0973 33.3816 68.7001 33.3527C69.3036 33.3808 69.9063 33.2834 70.4702 33.0667C71.0342 32.85 71.5471 32.5188 71.9766 32.0939C72.3967 31.6442 72.722 31.1145 72.9332 30.5365C73.1444 29.9585 73.2372 29.3438 73.206 28.7292Z" fill="#00008B"/>
<path d="M80.353 34.2649L84.1766 32.2943C84.2328 32.6122 84.353 32.9153 84.53 33.1853C84.7069 33.4553 84.9369 33.6865 85.206 33.8649C85.8217 34.2687 86.5464 34.474 87.2824 34.4531C87.9531 34.4902 88.6204 34.3351 89.206 34.0061C89.4222 33.8807 89.6003 33.6991 89.7215 33.4806C89.8427 33.262 89.9024 33.0147 89.8942 32.7649C89.8942 31.9414 89.0687 31.2492 87.4177 30.6884L86.1942 30.2531C84.1824 29.4963 82.7883 28.7335 82.0119 27.9649C81.6313 27.5962 81.3305 27.1532 81.1282 26.6635C80.9258 26.1737 80.8262 25.6477 80.8354 25.1179C80.8163 24.3317 80.9858 23.5525 81.3296 22.8453C81.6735 22.1381 82.1818 21.5236 82.8118 21.0531C84.1565 20.1512 85.714 19.6173 87.3293 19.5048C88.9445 19.3923 90.561 19.7051 92.0177 20.412C93.1052 20.991 93.9684 21.9164 94.4707 23.0414L90.8236 24.859C90.6607 24.2678 90.2966 23.7519 89.7942 23.4002C89.2464 23.0811 88.6254 22.9091 87.9916 22.9009C87.3577 22.8926 86.7324 23.0484 86.1766 23.3531C85.9718 23.4741 85.8018 23.646 85.6833 23.8522C85.5647 24.0584 85.5016 24.2918 85.5001 24.5296C85.5001 25.3826 86.6236 26.1708 88.8824 26.8826L89.4707 27.0708C91.3471 27.659 92.6766 28.4061 93.4707 29.2296C93.8646 29.6483 94.1714 30.141 94.3734 30.6793C94.5754 31.2175 94.6684 31.7904 94.6471 32.3649C94.6827 33.1523 94.5243 33.9364 94.1858 34.6482C93.8473 35.3601 93.3391 35.9778 92.706 36.4473C91.3942 37.4473 89.6177 37.9531 87.3824 37.9531C85.8146 37.9982 84.2596 37.6589 82.853 36.9649C81.7053 36.4174 80.8108 35.4513 80.353 34.2649Z" fill="#00008B"/>
<path d="M98.7649 37.2707V11.7119H105.059C108.412 11.7119 110.883 12.3531 112.488 13.6296C114.094 14.906 114.883 16.8825 114.883 19.5649C114.883 22.0472 114.077 23.9923 112.465 25.4001C110.853 26.808 108.62 27.5119 105.765 27.5119H104.265V37.2707H98.7649ZM104.265 23.2531H105.059C106.549 23.2531 107.632 22.9433 108.306 22.3237C108.977 21.7354 109.318 20.7178 109.318 19.3825C109.362 18.8775 109.294 18.3689 109.119 17.8931C108.944 17.4172 108.667 16.9858 108.306 16.6296C107.632 16.0531 106.549 15.7649 105.059 15.7649H104.271L104.265 23.2531Z" fill="#00008B"/>
<path d="M134.1 37.2702H129.282L129.353 34.8055C128.766 35.801 127.926 36.623 126.918 37.1879C125.843 37.7245 124.653 37.9872 123.453 37.9526C122.403 37.9846 121.361 37.7722 120.407 37.3322C119.454 36.8922 118.616 36.2367 117.959 35.4173C116.571 33.731 115.876 31.5016 115.876 28.7291C115.876 25.8467 116.561 23.5977 117.929 21.982C119.298 20.3663 121.196 19.5604 123.624 19.5643C124.796 19.5363 125.953 19.8292 126.971 20.4114C127.983 21.0371 128.816 21.9147 129.388 22.9585V20.1408H134.094L134.1 37.2702ZM129.565 28.682C129.634 27.3613 129.215 26.0613 128.388 25.0291C128 24.5843 127.516 24.2328 126.974 24.0006C126.431 23.7684 125.843 23.6615 125.253 23.6879C124.656 23.6575 124.06 23.7617 123.51 23.9929C122.959 24.224 122.467 24.5762 122.071 25.0232C121.24 26.0556 120.821 27.3589 120.894 28.682C120.813 29.9868 121.222 31.2748 122.041 32.2938C122.893 33.1238 124.035 33.5883 125.224 33.5883C126.413 33.5883 127.555 33.1238 128.406 32.2938C129.225 31.2743 129.638 29.9877 129.565 28.682Z" fill="#00008B"/>
<path d="M143.006 35.9416L136.112 20.1416H141.853L144.794 27.9828C145.006 28.5281 145.17 29.091 145.282 29.6651C145.416 30.3675 145.515 31.0763 145.577 31.7887C145.694 31.1592 145.841 30.5181 146.012 29.8651C146.182 29.2122 146.406 28.524 146.659 27.7887L149.259 20.1416H154.953L144.788 45.0534H139.288L143.006 35.9416Z" fill="#00008B"/>
</svg>
